<?xml version="1.0" standalone="no"?>
<!DOCTYPE svg PUBLIC "-//W3C//DTD SVG 20010904//EN"
 "http://www.w3.org/TR/2001/REC-SVG-20010904/DTD/svg10.dtd">
<svg version="1.0" xmlns="http://www.w3.org/2000/svg"
 width="512.000000pt" height="512.000000pt" viewBox="0 0 512.000000 512.000000"
 preserveAspectRatio="xMidYMid meet">
<g transform="translate(0.000000,512.000000) scale(0.100000,-0.100000)"
fill="#000000" stroke="none">
<path d="M2305 5113 c-671 -72 -1279 -393 -1707 -903 -301 -358 -488 -764
-571 -1240 -19 -109 -21 -162 -21 -410 0 -248 2 -301 21 -410 94 -540 320
-987 693 -1374 383 -398 866 -650 1430 -749 109 -19 162 -21 410 -21 313 0
407 10 653 73 882 228 1600 946 1828 1828 63 246 73 340 73 653 0 313 -10 407
-73 653 -228 881 -946 1600 -1828 1828 -227 58 -334 71 -613 74 -140 2 -273 1
-295 -2z m595 -178 c423 -64 831 -242 1165 -510 95 -76 273 -253 352 -350 225
-278 396 -624 477 -965 47 -197 60 -319 60 -550 0 -231 -13 -353 -60 -550 -93
-395 -313 -805 -582 -1083 -93 -97 -202 -198 -267 -249 l-61 -46 -99 42 c-441
187 -574 332 -600 653 -11 130 -2 168 71 290 76 127 114 222 146 363 l23 103
67 43 c75 48 108 90 138 179 55 159 48 334 -16 441 l-34 56 15 127 c17 145 20
434 5 566 -15 128 -46 247 -91 344 -31 67 -54 98 -116 161 -110 109 -236 166
-408 186 -43 5 -70 15 -95 34 -254 198 -842 162 -1227 -76 -44 -27 -113 -83
-159 -130 -67 -68 -90 -99 -132 -185 -59 -121 -77 -184 -93 -330 -14 -127 -2
-309 36 -549 l24 -155 -24 -35 c-44 -63 -58 -118 -59 -225 -1 -121 24 -234 68
-308 23 -38 50 -64 101 -98 l69 -46 26 -109 c35 -148 68 -230 144 -357 73
-122 82 -160 71 -290 -26 -321 -159 -466 -600 -653 l-99 -42 -61 46 c-110 85
-285 259 -381 379 -268 332 -444 738 -511 1173 -24 159 -24 501 0 660 68 441
245 845 520 1185 79 97 257 274 352 350 368 295 810 476 1280 524 123 13 437
5 565 -14z m-225 -766 c88 -14 181 -51 220 -88 45 -43 68 -51 165 -62 216 -22
366 -135 427 -320 61 -185 76 -513 38 -817 l-19 -152 37 -38 c20 -20 41 -50
47 -67 22 -58 9 -209 -24 -288 -14 -36 -28 -48 -109 -97 -63 -40 -79 -70 -117
-219 -38 -153 -71 -232 -138 -334 -75 -114 -85 -160 -79 -342 6 -166 24 -250
79 -358 84 -168 212 -275 487 -409 l123 -60 -58 -35 c-395 -238 -931 -358
-1400 -312 -359 34 -712 146 -988 312 l-57 34 153 77 c304 151 441 293 508
526 16 56 23 113 27 225 6 182 -4 228 -79 342 -70 107 -95 166 -134 321 -47
185 -49 188 -169 265 -61 39 -85 94 -92 213 -8 113 1 148 48 197 26 28 39 50
39 69 0 15 -14 114 -32 220 -28 169 -32 217 -33 383 0 172 2 197 23 265 64
204 176 333 377 432 223 111 492 154 730 117z"/>
</g>
</svg>
